<svg xmlns="http://www.w3.org/2000/svg" version="1.1" xmlns:xlink="http://www.w3.org/1999/xlink" xmlns:svgjs="http://svgjs.dev/svgjs" width="1500" height="253" viewBox="0 0 1500 253"><g transform="matrix(1,0,0,1,-0.9090909090909918,-0.956130506010993)"><svg viewBox="0 0 396 67" data-background-color="#140f43" preserveAspectRatio="xMidYMid meet" height="253" width="1500" xmlns="http://www.w3.org/2000/svg" xmlns:xlink="http://www.w3.org/1999/xlink"><g id="tight-bounds" transform="matrix(1,0,0,1,0.2400000000000091,0.2532045213546894)"><svg viewBox="0 0 395.52 66.49359095729062" height="66.49359095729062" width="395.52"><g><svg viewBox="0 0 564.7747166546346 94.94816695047781" height="66.49359095729062" width="395.52"><g><rect width="8.519924061793416" height="94.94816695047781" x="138.43132646249205" y="0" fill="#ffffff" opacity="1" stroke-width="0" stroke="transparent" fill-opacity="1" class="rect-yte-0" data-fill-palette-color="primary" rx="1%" id="yte-0" data-palette-color="#ffffff"></rect></g><g transform="matrix(1,0,0,1,169.2547166546347,0.23618947002606205)"><svg viewBox="0 0 395.52 94.47578801042569" height="94.47578801042569" width="395.52"><g id="textblocktransform"><svg viewBox="0 0 395.52 94.47578801042569" height="94.47578801042569" width="395.52" id="textblock"><g><svg viewBox="0 0 395.52 94.47578801042569" height="94.47578801042569" width="395.52"><g transform="matrix(1,0,0,1,0,0)"><svg width="395.52" viewBox="0.3875 -33.75 215.79250000000002 51.55" height="94.47578801042569" data-palette-color="#ffffff"><path d="M8.1 0.05L8.1 0.05Q5.95 0.05 4.3-0.6 2.65-1.25 1.5-2.3L1.5-2.3Q0.8-2.95 0.5-3.63 0.2-4.3 0.7-4.85L0.7-4.85Q1.25-5.5 1.78-5.53 2.3-5.55 2.9-5L2.9-5Q3.8-4.25 5.15-3.58 6.5-2.9 8.2-2.9L8.2-2.9Q9.6-2.9 10.35-3.58 11.1-4.25 11.1-5.4L11.1-5.4Q11.1-6.15 10.68-6.8 10.25-7.45 9.1-8.3 7.95-9.15 5.65-10.5L5.65-10.5Q3.8-11.6 2.85-12.83 1.9-14.05 1.9-15.9L1.9-15.9Q1.9-18.2 3.63-19.63 5.35-21.05 8.3-21.05L8.3-21.05Q9.5-21.05 10.9-20.65 12.3-20.25 13.8-19.3L13.8-19.3Q14.65-18.8 15-17.98 15.35-17.15 14.95-16.55L14.95-16.55Q14.6-15.95 13.95-16 13.3-16.05 12.6-16.55L12.6-16.55Q11.85-17.1 10.68-17.57 9.5-18.05 7.9-18.05L7.9-18.05Q6.45-18.05 5.65-17.45 4.85-16.85 4.85-15.85L4.85-15.85Q4.85-14.9 5.5-14.28 6.15-13.65 7.55-12.85L7.55-12.85Q10.25-11.25 11.68-10.15 13.1-9.05 13.6-8 14.1-6.95 14.1-5.5L14.1-5.5Q14.1-3.8 13.35-2.55 12.6-1.3 11.28-0.63 9.95 0.05 8.1 0.05ZM17.95 17.8L17.95 17.8Q17.4 17.8 16.97 17.38 16.55 16.95 16.65 16.05L16.65 16.05 20.3-19.15Q20.4-19.95 20.9-20.38 21.4-20.8 21.9-20.8L21.9-20.8Q22.5-20.8 22.95-20.4 23.4-20 23.3-19.15L23.3-19.15 19.6 16.2Q19.55 17 19.02 17.4 18.5 17.8 17.95 17.8ZM26.65 0.05L26.65 0.05Q25.35 0.05 23.85-0.45 22.35-0.95 21.2-2.2L21.2-2.2 21.5-5.25Q22.35-3.95 23.92-3.3 25.5-2.65 26.75-2.65L26.75-2.65Q28.95-2.65 30.57-4.67 32.2-6.7 32.6-10.5L32.6-10.5Q32.85-12.45 32.52-14.23 32.2-16 31.27-17.15 30.35-18.3 28.8-18.3L28.8-18.3Q27.55-18.3 26.45-17.15 25.35-16 24.45-14.18 23.55-12.35 22.87-10.28 22.2-8.2 21.85-6.3L21.85-6.3 22.7-15.9Q23.2-16.95 23.85-17.88 24.5-18.8 25.3-19.53 26.1-20.25 27-20.65 27.9-21.05 28.85-21.05L28.85-21.05Q31.45-21.05 33.02-19.45 34.6-17.85 35.22-15.4 35.85-12.95 35.6-10.35L35.6-10.35Q35.25-6.95 33.95-4.63 32.65-2.3 30.75-1.13 28.85 0.05 26.65 0.05ZM46.45 0.05L46.45 0.05Q43.85 0.05 42.27-1.5 40.7-3.05 40.07-5.45 39.45-7.85 39.7-10.45L39.7-10.45Q40.1-13.9 41.37-16.25 42.65-18.6 44.55-19.83 46.45-21.05 48.65-21.05L48.65-21.05Q49.95-21.05 51.47-20.45 53-19.85 54.1-18.6L54.1-18.6 53.8-15.85Q52.95-17.15 51.4-17.73 49.85-18.3 48.55-18.3L48.55-18.3Q46.4-18.3 44.75-16.2 43.1-14.1 42.7-10.3L42.7-10.3Q42.5-8.35 42.8-6.6 43.1-4.85 44.02-3.75 44.95-2.65 46.5-2.65L46.5-2.65Q47.75-2.65 48.85-3.78 49.95-4.9 50.87-6.68 51.8-8.45 52.45-10.53 53.1-12.6 53.45-14.5L53.45-14.5 52.6-4.85Q52.1-3.8 51.45-2.93 50.8-2.05 50-1.38 49.2-0.7 48.32-0.33 47.45 0.05 46.45 0.05ZM53.4 0L53.4 0Q52.8 0 52.37-0.43 51.95-0.85 52-1.65L52-1.65 53.85-19.2Q53.95-20 54.45-20.4 54.95-20.8 55.5-20.8L55.5-20.8Q56.05-20.8 56.5-20.35 56.95-19.9 56.84-19L56.84-19 55-1.65Q54.9-0.85 54.42-0.43 53.95 0 53.4 0ZM61.69 0L61.69 0Q61.09 0 60.67-0.4 60.24-0.8 60.29-1.6L60.29-1.6 62.14-19.2Q62.24-20 62.77-20.4 63.29-20.8 63.84-20.8L63.84-20.8Q64.39-20.8 64.82-20.35 65.24-19.9 65.14-19L65.14-19 63.29-1.6Q63.19-0.8 62.72-0.4 62.24 0 61.69 0ZM75.04-15.05L75.04-15.05Q74.54-14.75 73.89-14.9 73.24-15.05 73.14-15.55L73.14-15.55Q72.94-16.55 72.54-17.32 72.14-18.1 71.34-18.1L71.34-18.1Q70.14-18.1 68.89-16.95 67.64-15.8 66.19-13.33 64.74-10.85 62.89-6.75L62.89-6.75 63.44-13.3Q65.29-17.15 67.19-19.1 69.09-21.05 71.54-21.05L71.54-21.05Q73.29-21.05 74.42-19.88 75.54-18.7 75.94-17.05L75.94-17.05Q76.14-16.2 75.84-15.75 75.54-15.3 75.04-15.05ZM79.39 0L79.39 0Q78.79 0 78.37-0.4 77.94-0.8 77.99-1.6L77.99-1.6 79.84-19.2Q79.94-20 80.47-20.4 80.99-20.8 81.54-20.8L81.54-20.8Q82.09-20.8 82.52-20.35 82.94-19.9 82.84-19L82.84-19 80.99-1.6Q80.89-0.8 80.42-0.4 79.94 0 79.39 0ZM92.74-15.05L92.74-15.05Q92.24-14.75 91.59-14.9 90.94-15.05 90.84-15.55L90.84-15.55Q90.64-16.55 90.24-17.32 89.84-18.1 89.04-18.1L89.04-18.1Q87.84-18.1 86.59-16.95 85.34-15.8 83.89-13.33 82.44-10.85 80.59-6.75L80.59-6.75 81.14-13.3Q82.99-17.15 84.89-19.1 86.79-21.05 89.24-21.05L89.24-21.05Q90.99-21.05 92.12-19.88 93.24-18.7 93.64-17.05L93.64-17.05Q93.84-16.2 93.54-15.75 93.24-15.3 92.74-15.05ZM102.74 0.05L102.74 0.05Q100.14 0.05 98.56-1.5 96.99-3.05 96.36-5.45 95.74-7.85 95.99-10.45L95.99-10.45Q96.54-15.6 99.09-18.32 101.64-21.05 104.94-21.05L104.94-21.05Q107.54-21.05 109.11-19.5 110.69-17.95 111.31-15.53 111.94-13.1 111.64-10.45L111.64-10.45Q111.39-7.95 110.31-5.53 109.24-3.1 107.36-1.53 105.49 0.05 102.74 0.05ZM103.04-2.65L103.04-2.65Q104.24-2.65 105.44-3.63 106.64-4.6 107.51-6.38 108.39-8.15 108.64-10.55L108.64-10.55Q108.74-11.6 108.66-12.9 108.59-14.2 108.19-15.45 107.79-16.7 106.99-17.5 106.19-18.3 104.84-18.3L104.84-18.3Q102.69-18.3 101.04-16.2 99.39-14.1 98.99-10.3L98.99-10.3Q98.79-8.35 99.11-6.6 99.44-4.85 100.41-3.75 101.39-2.65 103.04-2.65ZM119.09-1.25L119.09-1.25 115.64-18.3Q115.44-19.5 115.84-20.15 116.24-20.8 117.04-20.8L117.04-20.8Q117.49-20.8 117.89-20.5 118.29-20.2 118.34-19.8L118.34-19.8 121.19-4.2 120.74-4.35 127.64-19.95Q127.84-20.35 128.21-20.58 128.59-20.8 129.04-20.8L129.04-20.8Q129.49-20.8 129.89-20.5 130.29-20.2 130.34-19.8L130.34-19.8 133.29-4.2 132.79-4.35 139.64-19.95Q139.84-20.35 140.21-20.6 140.59-20.85 141.04-20.8L141.04-20.8Q141.89-20.7 142.29-20.1 142.69-19.5 142.19-18.35L142.19-18.35 134.24-1.15Q133.89-0.45 133.49-0.23 133.09 0 132.54 0L132.54 0Q132.04 0 131.61-0.28 131.19-0.55 131.09-1.25L131.09-1.25 128.29-16.2 128.94-16.1 122.24-1.15Q121.89-0.45 121.49-0.23 121.09 0 120.54 0L120.54 0Q120.04 0 119.61-0.28 119.19-0.55 119.09-1.25ZM151.18 0.05L151.18 0.05Q148.58 0.05 147.01-1.5 145.43-3.05 144.81-5.45 144.18-7.85 144.43-10.45L144.43-10.45Q144.83-13.9 146.11-16.25 147.38-18.6 149.28-19.83 151.18-21.05 153.38-21.05L153.38-21.05Q155.18-21.05 156.53-20.13 157.88-19.2 158.73-17.9L158.73-17.9Q158.93-17.55 158.81-17 158.68-16.45 158.13-16.15L158.13-16.15Q157.53-15.85 157.06-16 156.58-16.15 156.33-16.5L156.33-16.5Q155.88-17.25 155.11-17.78 154.33-18.3 153.28-18.3L153.28-18.3Q151.13-18.3 149.48-16.2 147.83-14.1 147.43-10.3L147.43-10.3Q147.23-8.35 147.56-6.6 147.88-4.85 148.86-3.75 149.83-2.65 151.48-2.65L151.48-2.65Q152.63-2.65 153.78-3.53 154.93-4.4 155.73-6L155.73-6Q155.98-6.45 156.56-6.6 157.13-6.75 157.68-6.4L157.68-6.4Q158.23-6.1 158.38-5.55 158.53-5 158.28-4.55L158.28-4.55Q157.18-2.55 155.43-1.25 153.68 0.05 151.18 0.05ZM169.83 0.05L169.83 0.05Q167.23 0.05 165.66-1.5 164.08-3.05 163.46-5.45 162.83-7.85 163.08-10.45L163.08-10.45Q163.48-13.9 164.76-16.25 166.03-18.6 167.93-19.83 169.83-21.05 172.03-21.05L172.03-21.05Q173.33-21.05 174.86-20.45 176.38-19.85 177.48-18.6L177.48-18.6 177.18-15.85Q176.33-17.15 174.78-17.73 173.23-18.3 171.93-18.3L171.93-18.3Q169.78-18.3 168.13-16.2 166.48-14.1 166.08-10.3L166.08-10.3Q165.88-8.35 166.18-6.6 166.48-4.85 167.41-3.75 168.33-2.65 169.88-2.65L169.88-2.65Q171.13-2.65 172.23-3.78 173.33-4.9 174.26-6.68 175.18-8.45 175.83-10.53 176.48-12.6 176.83-14.5L176.83-14.5 175.98-4.85Q175.48-3.8 174.83-2.93 174.18-2.05 173.38-1.38 172.58-0.7 171.71-0.33 170.83 0.05 169.83 0.05ZM176.78 0L176.78 0Q176.18 0 175.76-0.43 175.33-0.85 175.38-1.65L175.38-1.65 177.23-19.2Q177.33-20 177.83-20.4 178.33-20.8 178.88-20.8L178.88-20.8Q179.43-20.8 179.88-20.35 180.33-19.9 180.23-19L180.23-19 178.38-1.65Q178.28-0.85 177.81-0.43 177.33 0 176.78 0ZM185.08 0L185.08 0Q184.48 0 184.05-0.4 183.63-0.8 183.68-1.6L183.68-1.6 185.53-19.2Q185.63-20 186.15-20.4 186.68-20.8 187.23-20.8L187.23-20.8Q187.78-20.8 188.2-20.35 188.63-19.9 188.53-19L188.53-19 186.68-1.6Q186.58-0.8 186.1-0.4 185.63 0 185.08 0ZM198.43-15.05L198.43-15.05Q197.93-14.75 197.28-14.9 196.63-15.05 196.53-15.55L196.53-15.55Q196.33-16.55 195.93-17.32 195.53-18.1 194.73-18.1L194.73-18.1Q193.53-18.1 192.28-16.95 191.03-15.8 189.58-13.33 188.13-10.85 186.28-6.75L186.28-6.75 186.83-13.3Q188.68-17.15 190.58-19.1 192.48-21.05 194.93-21.05L194.93-21.05Q196.68-21.05 197.8-19.88 198.93-18.7 199.33-17.05L199.33-17.05Q199.53-16.2 199.23-15.75 198.93-15.3 198.43-15.05ZM206.33 0L206.33 0Q205.78 0 205.28-0.38 204.78-0.75 204.83-1.45L204.83-1.45 208.18-32.5Q208.28-33.1 208.73-33.43 209.18-33.75 209.68-33.75L209.68-33.75Q210.28-33.75 210.75-33.35 211.23-32.95 211.13-32.15L211.13-32.15 207.83-1.35Q207.73-0.65 207.3-0.33 206.88 0 206.33 0ZM214.78-18.1L202.73-18.1Q201.83-18.1 201.43-18.53 201.03-18.95 201.03-19.5L201.03-19.5Q201.03-20.05 201.33-20.43 201.63-20.8 202.53-20.8L202.53-20.8 214.58-20.8Q215.48-20.8 215.83-20.43 216.18-20.05 216.18-19.5L216.18-19.5Q216.18-18.95 215.93-18.53 215.68-18.1 214.78-18.1L214.78-18.1Z" opacity="1" transform="matrix(1,0,0,1,0,0)" fill="#ffffff" class="wordmark-text-0" data-fill-palette-color="primary" id="text-0"></path></svg></g></svg></g></svg></g></svg></g><g transform="matrix(1,0,0,1,0,0.23618947002606205)"><svg viewBox="0 0 116.12786033214279 94.47578801042569" height="94.47578801042569" width="116.12786033214279"><g><svg xmlns="http://www.w3.org/2000/svg" xmlns:xlink="http://www.w3.org/1999/xlink" version="1.1" x="0" y="0" viewBox="5 13.380525391417759 90 73.21947460858223" enable-background="new 0 0 100 100" xml:space="preserve" height="94.47578801042569" width="116.12786033214279" class="icon-icon-0" data-fill-palette-color="accent" id="icon-0"><g fill="#ff9c13" data-fill-palette-color="accent"><path fill="#ff9c13" d="M90.4 21.4C88.9 21.2 87.3 22.1 86.7 23.5S86.6 26.7 87.8 27.7L95 26.7z" data-fill-palette-color="accent"></path><path fill="#ff9c13" d="M85.4 23.3C86.3 20.6 89.5 20.3 89.5 20.3 74.8 1.2 60.3 27.7 60.3 27.7 44.8 34.8 22.1 67 22.1 67 5.2 76.1 5 86.3 5 86.3H5.3C8 85.3 11.8 83.1 15.2 78.4 15.2 78.4 13.1 82.9 9.5 86.6 10.5 86.6 11.5 86.5 12.3 86.3 14.8 85.5 22.6 72.5 26.4 70S34.6 65.6 36.5 63.7C38.5 61.8 51.6 48.6 51.6 48.6 48.5 54.6 32.3 69 37.5 68.7S67.6 50.7 67.6 50.7C65.2 56.3 48.3 65.6 48.3 65.6 51 65.8 54.2 65.3 56.7 64.9 59.5 67.7 61.2 68.4 61.7 68.9 62.3 69.5 58.1 70 57.2 70.5S54.1 70.7 54.1 72.7C54.1 72.7 56.3 71.8 58.5 72.7 58.5 72.7 61.5 72.5 62.6 71L64.5 70.2S64.9 70.6 66 70.6C68.7 73.3 71.2 75.9 71.5 76.2 72.1 76.8 67.9 77.3 67 77.8S63.9 78 63.9 80C63.9 80 66.1 79.1 68.3 80 68.3 80 71.3 79.8 72.4 78.3L74.3 77.5S75.1 78.3 77.6 77.7 82.3 76.8 82.3 76.8 82.3 74.9 84.8 76.3C84.8 76.3 82.9 74.9 81.7 75 80.4 75.2 79.8 75.5 79.8 75.5L74.5 75 69.5 70C71.3 69.6 72.6 69.4 72.6 69.4S72.6 67.5 75.1 68.9C75.1 68.9 73.2 67.5 72 67.6 70.7 67.8 70.1 68.1 70.1 68.1L67.4 67.9 62.9 63.4C81.7 56 84.8 44.2 84.6 38.6 84.4 32.8 86.7 29 86.7 29S84.5 25.9 85.4 23.3M79.5 23.1C78.5 23.1 77.8 22.3 77.8 21.4 77.8 20.4 78.6 19.7 79.5 19.7 80.5 19.7 81.2 20.5 81.2 21.4 81.2 22.4 80.4 23.1 79.5 23.1" data-fill-palette-color="accent"></path></g></svg></g></svg></g></svg></g><defs></defs></svg><rect width="395.52" height="66.49359095729062" fill="none" stroke="none" visibility="hidden"></rect></g></svg></g></svg>